<svg width="87" height="23" viewBox="0 0 87 23" fill="none" xmlns="http://www.w3.org/2000/svg">
<path d="M0.656 6H3.776V18H0.656V6ZM0.2 2.616C0.2 2.152 0.368 1.76 0.704 1.44C1.056 1.104 1.536 0.935999 2.144 0.935999C2.752 0.935999 3.24 1.104 3.608 1.44C3.992 1.76 4.184 2.152 4.184 2.616C4.184 3.08 3.992 3.472 3.608 3.792C3.24 4.096 2.752 4.248 2.144 4.248C1.536 4.248 1.056 4.096 0.704 3.792C0.368 3.472 0.2 3.08 0.2 2.616ZM10.9653 12.288L11.3733 14.136H11.4933L11.8293 12.24L13.8693 6H17.2293L12.2133 18.12H10.3173L5.10931 6H8.73331L10.9653 12.288ZM23.6032 12.744L24.0352 14.616H24.1792L24.4912 12.72L26.3152 6H29.5312L25.8832 16.824C25.5792 17.72 25.2832 18.536 24.9952 19.272C24.7232 20.024 24.4192 20.672 24.0832 21.216C23.7472 21.76 23.3712 22.176 22.9552 22.464C22.5552 22.768 22.0752 22.92 21.5152 22.92C20.6832 22.92 20.0192 22.784 19.5232 22.512L20.0992 20.016C20.3392 20.112 20.5792 20.16 20.8192 20.16C21.1872 20.16 21.5392 20 21.8752 19.68C22.2272 19.376 22.4912 18.816 22.6672 18L17.6512 6H21.3952L23.6032 12.744ZM35.6641 14.688C35.6641 14.368 35.5281 14.112 35.2561 13.92C34.9841 13.728 34.6481 13.552 34.2481 13.392C33.8481 13.232 33.4081 13.072 32.9281 12.912C32.4481 12.736 32.0081 12.504 31.6081 12.216C31.2081 11.912 30.8721 11.536 30.6001 11.088C30.3281 10.624 30.1921 10.032 30.1921 9.312C30.1921 8.128 30.5441 7.224 31.2481 6.6C31.9521 5.976 32.9681 5.664 34.2961 5.664C35.2081 5.664 36.0321 5.76 36.7681 5.952C37.5041 6.144 38.0801 6.36 38.4961 6.6L37.8001 8.856C37.4321 8.712 36.9681 8.56 36.4081 8.4C35.8481 8.24 35.2801 8.16 34.7041 8.16C33.7761 8.16 33.3121 8.52 33.3121 9.24C33.3121 9.528 33.4481 9.76 33.7201 9.936C33.9921 10.112 34.3281 10.28 34.7281 10.44C35.1281 10.584 35.5681 10.744 36.0481 10.92C36.5281 11.096 36.9681 11.328 37.3681 11.616C37.7681 11.888 38.1041 12.248 38.3761 12.696C38.6481 13.144 38.7841 13.72 38.7841 14.424C38.7841 15.64 38.3921 16.6 37.6081 17.304C36.8401 17.992 35.6801 18.336 34.1281 18.336C33.2801 18.336 32.4801 18.224 31.7281 18C30.9921 17.792 30.3921 17.544 29.9281 17.256L30.7921 14.928C31.1601 15.136 31.6481 15.344 32.2561 15.552C32.8641 15.744 33.4881 15.84 34.1281 15.84C34.5921 15.84 34.9601 15.752 35.2321 15.576C35.5201 15.4 35.6641 15.104 35.6641 14.688ZM49.3171 17.256C48.8371 17.608 48.2531 17.872 47.5651 18.048C46.8931 18.24 46.1971 18.336 45.4771 18.336C44.5171 18.336 43.7011 18.184 43.0291 17.88C42.3731 17.576 41.8371 17.152 41.4211 16.608C41.0051 16.048 40.7011 15.376 40.5091 14.592C40.3331 13.808 40.2451 12.944 40.2451 12C40.2451 9.968 40.7011 8.408 41.6131 7.32C42.5251 6.216 43.8531 5.664 45.5971 5.664C46.4771 5.664 47.1811 5.736 47.7091 5.88C48.2531 6.024 48.7411 6.208 49.1731 6.432L48.4291 8.976C48.0611 8.8 47.6931 8.664 47.3251 8.568C46.9731 8.472 46.5651 8.424 46.1011 8.424C45.2371 8.424 44.5811 8.712 44.1331 9.288C43.6851 9.848 43.4611 10.752 43.4611 12C43.4611 12.512 43.5171 12.984 43.6291 13.416C43.7411 13.848 43.9091 14.224 44.1331 14.544C44.3571 14.864 44.6451 15.12 44.9971 15.312C45.3651 15.488 45.7891 15.576 46.2691 15.576C46.7971 15.576 47.2451 15.512 47.6131 15.384C47.9811 15.24 48.3091 15.072 48.5971 14.88L49.3171 17.256ZM50.2295 12C50.2295 9.968 50.7255 8.408 51.7175 7.32C52.7095 6.216 54.1015 5.664 55.8935 5.664C56.8535 5.664 57.6855 5.816 58.3895 6.12C59.0935 6.424 59.6775 6.856 60.1415 7.416C60.6055 7.96 60.9495 8.624 61.1735 9.408C61.4135 10.192 61.5335 11.056 61.5335 12C61.5335 14.032 61.0375 15.6 60.0455 16.704C59.0695 17.792 57.6855 18.336 55.8935 18.336C54.9335 18.336 54.1015 18.184 53.3975 17.88C52.6935 17.576 52.1015 17.152 51.6215 16.608C51.1575 16.048 50.8055 15.376 50.5655 14.592C50.3415 13.808 50.2295 12.944 50.2295 12ZM53.4455 12C53.4455 12.528 53.4935 13.016 53.5895 13.464C53.6855 13.912 53.8295 14.304 54.0215 14.64C54.2135 14.976 54.4615 15.24 54.7655 15.432C55.0855 15.608 55.4615 15.696 55.8935 15.696C56.7095 15.696 57.3175 15.4 57.7175 14.808C58.1175 14.216 58.3175 13.28 58.3175 12C58.3175 10.896 58.1335 10.008 57.7655 9.336C57.3975 8.648 56.7735 8.304 55.8935 8.304C55.1255 8.304 54.5255 8.592 54.0935 9.168C53.6615 9.744 53.4455 10.688 53.4455 12ZM63.6961 6H65.9761L66.3361 7.44H66.4321C66.8481 6.832 67.3361 6.384 67.8961 6.096C68.4721 5.808 69.1681 5.664 69.9841 5.664C71.4881 5.664 72.6161 6.144 73.3681 7.104C74.1201 8.048 74.4961 9.576 74.4961 11.688C74.4961 12.712 74.3761 13.64 74.1361 14.472C73.8961 15.288 73.5361 15.984 73.0561 16.56C72.5921 17.136 72.0161 17.576 71.3281 17.88C70.6561 18.184 69.8801 18.336 69.0001 18.336C68.5041 18.336 68.0961 18.296 67.7761 18.216C67.4561 18.152 67.1361 18.04 66.8161 17.88V22.8H63.6961V6ZM69.0481 8.304C68.4401 8.304 67.9601 8.456 67.6081 8.76C67.2721 9.064 67.0081 9.52 66.8161 10.128V15.12C67.0401 15.296 67.2801 15.44 67.5361 15.552C67.8081 15.648 68.1601 15.696 68.5921 15.696C69.4881 15.696 70.1601 15.384 70.6081 14.76C71.0561 14.12 71.2801 13.072 71.2801 11.616C71.2801 10.56 71.1041 9.744 70.7521 9.168C70.4001 8.592 69.8321 8.304 69.0481 8.304ZM86.2571 16.968C85.7771 17.352 85.1211 17.68 84.2891 17.952C83.4731 18.208 82.6011 18.336 81.6731 18.336C79.7371 18.336 78.3211 17.776 77.4251 16.656C76.5291 15.52 76.0811 13.968 76.0811 12C76.0811 9.888 76.5851 8.304 77.5931 7.248C78.6011 6.192 80.0171 5.664 81.8411 5.664C82.4491 5.664 83.0411 5.744 83.6171 5.904C84.1931 6.064 84.7051 6.328 85.1531 6.696C85.6011 7.064 85.9611 7.56 86.2331 8.184C86.5051 8.808 86.6411 9.584 86.6411 10.512C86.6411 10.848 86.6171 11.208 86.5691 11.592C86.5371 11.976 86.4811 12.376 86.4011 12.792H79.2011C79.2491 13.8 79.5051 14.56 79.9691 15.072C80.4491 15.584 81.2171 15.84 82.2731 15.84C82.9291 15.84 83.5131 15.744 84.0251 15.552C84.5531 15.344 84.9531 15.136 85.2251 14.928L86.2571 16.968ZM81.7931 8.16C80.9771 8.16 80.3691 8.408 79.9691 8.904C79.5851 9.384 79.3531 10.032 79.2731 10.848H83.7371C83.8011 9.984 83.6651 9.32 83.3291 8.856C83.0091 8.392 82.4971 8.16 81.7931 8.16Z" fill="white"/>
</svg>
